PathFileType	4	(X/Y/Z)	 1.9Hzhigh3min.trc
DataRate	CameraRate	NumFrames	NumMarkers	Units	OrigDataRate	OrigDataStartFrame	OrigNumFrames
200	200	8	43	m	200	626	1000
Frame#	Time	C7			LSH			RSH			MAN			RASI			LASI			HIPR			HIPL			RPSI			LPSI			COX			RTHI1			RTHI2			RTHI3			RTHI4			RLKN			RMKN			RSHA1			RSHA2			RSHA3			RSHA4			RLMAL			RMMAL			RHEEL			RMET5			RMET1			RTOE			LTHI1			LTHI2			LTHI3			LTHI4			LLKN			LMKN			LSHA1			LSHA2			LSHA3			LSHA4			LLMAL			LMMAL			LHEEL			LMET5			LMET1			LTOE			
		X1	Y1	Z1	X2	Y2	Z2	X3	Y3	Z3	X4	Y4	Z4	X5	Y5	Z5	X6	Y6	Z6	X7	Y7	Z7	X8	Y8	Z8	X9	Y9	Z9	X10	Y10	Z10	X11	Y11	Z11	X12	Y12	Z12	X13	Y13	Z13	X14	Y14	Z14	X15	Y15	Z15	X16	Y16	Z16	X17	Y17	Z17	X18	Y18	Z18	X19	Y19	Z19	X20	Y20	Z20	X21	Y21	Z21	X22	Y22	Z22	X23	Y23	Z23	X24	Y24	Z24	X25	Y25	Z25	X26	Y26	Z26	X27	Y27	Z27	X28	Y28	Z28	X29	Y29	Z29	X30	Y30	Z30	X31	Y31	Z31	X32	Y32	Z32	X33	Y33	Z33	X34	Y34	Z34	X35	Y35	Z35	X36	Y36	Z36	X37	Y37	Z37	X38	Y38	Z38	X39	Y39	Z39	X40	Y40	Z40	X41	Y41	Z41	X42	Y42	Z42	X43	Y43	Z43	
626	3.1300	-0.302327	1.662563	-0.590668	-0.235783	1.645494	-0.787508	-0.204640	1.636758	-0.404723	-0.161975	1.609076	-0.602288	-0.129371	1.153582	-0.476704	-0.132299	1.152890	-0.718102	-0.208783	1.209823	-0.437773	-0.204149	1.195389	-0.754436	-0.306111	1.203588	-0.539787	-0.309544	1.200042	-0.637391	-0.312300	1.199589	-0.588127	-0.231811	0.894753	-0.403864	-0.221514	0.835482	-0.405313	-0.157551	0.842658	-0.398168	-0.159330	0.904370	-0.396090	-0.209736	0.636959	-0.420177	-0.180503	0.613483	-0.533391	-0.292321	0.458152	-0.405249	-0.304266	0.418092	-0.414122	-0.239546	0.445694	-0.402697	-0.245115	0.406642	-0.405224	-0.328106	0.239156	-0.434799	-0.284866	0.235806	-0.510842	-0.364850	0.239559	-0.499769	-0.253867	0.140670	-0.399968	-0.192052	0.137786	-0.453761	-0.173399	0.126243	-0.450355	-0.233589	0.906080	-0.790222	-0.220002	0.846130	-0.792075	-0.155986	0.854444	-0.799152	-0.162029	0.914131	-0.799397	-0.203214	0.642479	-0.782133	-0.172707	0.626642	-0.666871	-0.289890	0.456895	-0.775893	-0.297719	0.417768	-0.767600	-0.239748	0.407925	-0.785401	-0.238304	0.451268	-0.791694	-0.311634	0.243283	-0.758531	-0.255694	0.241992	-0.690591	-0.338830	0.246563	-0.687046	-0.244551	0.137930	-0.795391	-0.176439	0.137832	-0.745208	-0.156956	0.124432	-0.761361	
627	3.1350	-0.302032	1.661404	-0.590823	-0.235497	1.644146	-0.787723	-0.204368	1.635296	-0.404852	-0.161874	1.607671	-0.602484	-0.130152	1.152395	-0.476600	-0.133380	1.151917	-0.718208	-0.209551	1.208561	-0.437815	-0.205511	1.194168	-0.754208	-0.306811	1.201978	-0.539539	-0.310413	1.198380	-0.637027	-0.313106	1.197915	-0.587863	-0.232122	0.893078	-0.404014	-0.221696	0.833826	-0.405517	-0.157752	0.841122	-0.398338	-0.159639	0.902824	-0.396199	-0.209649	0.635390	-0.420313	-0.180697	0.611857	-0.533592	-0.292634	0.456802	-0.405145	-0.304799	0.416761	-0.414050	-0.239901	0.444119	-0.402945	-0.245642	0.405114	-0.405479	-0.329227	0.237900	-0.434753	-0.286658	0.234837	-0.511184	-0.366624	0.238665	-0.499316	-0.254730	0.138889	-0.401404	-0.193468	0.136615	-0.455792	-0.174767	0.125078	-0.452663	-0.233804	0.904484	-0.790120	-0.219934	0.844601	-0.792174	-0.156013	0.853233	-0.799615	-0.162325	0.912892	-0.799739	-0.201948	0.641060	-0.782509	-0.171854	0.625174	-0.667123	-0.289548	0.456034	-0.776304	-0.297696	0.416999	-0.767983	-0.239694	0.406686	-0.785404	-0.237903	0.450001	-0.791786	-0.313004	0.242596	-0.758553	-0.257514	0.241212	-0.690251	-0.340810	0.245996	-0.687249	-0.245865	0.136984	-0.794558	-0.178234	0.136938	-0.743836	-0.158689	0.123532	-0.759881	
628	3.1400	-0.301717	1.660005	-0.590992	-0.235181	1.642529	-0.787954	-0.204099	1.633595	-0.404978	-0.161674	1.605974	-0.602653	-0.130931	1.150931	-0.476516	-0.134457	1.150684	-0.718338	-0.210294	1.207027	-0.437841	-0.206875	1.192704	-0.753987	-0.307498	1.200156	-0.539292	-0.311273	1.196517	-0.636637	-0.313892	1.196049	-0.587595	-0.232412	0.891157	-0.404175	-0.221856	0.831928	-0.405733	-0.157927	0.839351	-0.398533	-0.159932	0.901044	-0.396338	-0.209564	0.633586	-0.420456	-0.180860	0.610004	-0.533787	-0.292949	0.455220	-0.405064	-0.305328	0.415220	-0.413987	-0.240276	0.442324	-0.403176	-0.246174	0.403354	-0.405707	-0.330316	0.236407	-0.434671	-0.288427	0.233625	-0.511486	-0.368364	0.237555	-0.498829	-0.255646	0.136844	-0.402823	-0.194940	0.135205	-0.457776	-0.176191	0.123697	-0.454909	-0.234018	0.902627	-0.789982	-0.219857	0.842810	-0.792229	-0.156032	0.851785	-0.800059	-0.162637	0.911403	-0.800066	-0.200699	0.639402	-0.782900	-0.170964	0.623461	-0.667403	-0.289229	0.454944	-0.776749	-0.297686	0.416009	-0.768386	-0.239667	0.405229	-0.785448	-0.237533	0.448512	-0.791913	-0.314341	0.241659	-0.758638	-0.259331	0.240225	-0.689954	-0.342779	0.245224	-0.687557	-0.247115	0.135705	-0.793620	-0.180008	0.135847	-0.742333	-0.160378	0.122444	-0.758242	
629	3.1450	-0.301382	1.658353	-0.591173	-0.234839	1.640634	-0.788193	-0.203829	1.631652	-0.405101	-0.161439	1.603987	-0.602814	-0.131702	1.149187	-0.476457	-0.135531	1.149190	-0.718491	-0.211007	1.205214	-0.437851	-0.208223	1.190987	-0.753777	-0.308177	1.198129	-0.539046	-0.312131	1.194440	-0.636240	-0.314660	1.193996	-0.587317	-0.232682	0.889005	-0.404349	-0.221998	0.829806	-0.405961	-0.158083	0.837354	-0.398753	-0.160211	0.899040	-0.396502	-0.209479	0.631554	-0.420608	-0.180989	0.607937	-0.533983	-0.293288	0.453419	-0.405033	-0.305850	0.413477	-0.413936	-0.240675	0.440314	-0.403411	-0.246697	0.401367	-0.405934	-0.331406	0.234699	-0.434564	-0.290164	0.232183	-0.511768	-0.370069	0.236228	-0.498325	-0.256604	0.134562	-0.404216	-0.196457	0.133585	-0.459706	-0.177675	0.122115	-0.457079	-0.234225	0.900516	-0.789795	-0.219771	0.840766	-0.792239	-0.156044	0.850100	-0.800478	-0.162957	0.909671	-0.800366	-0.199473	0.637504	-0.783304	-0.170035	0.621506	-0.667717	-0.288944	0.453619	-0.777205	-0.297703	0.414787	-0.768811	-0.239673	0.403555	-0.785529	-0.237203	0.446794	-0.792075	-0.315635	0.240458	-0.758799	-0.261140	0.239034	-0.689705	-0.344757	0.244258	-0.687974	-0.248294	0.134106	-0.792586	-0.181744	0.134568	-0.740715	-0.162014	0.121178	-0.756458	
630	3.1500	-0.301028	1.656463	-0.591364	-0.234477	1.638459	-0.788437	-0.203560	1.629462	-0.405222	-0.161175	1.601712	-0.602969	-0.132464	1.147165	-0.476425	-0.136609	1.147420	-0.718658	-0.211688	1.203126	-0.437845	-0.209552	1.189022	-0.753589	-0.308852	1.195905	-0.538793	-0.312989	1.192150	-0.635847	-0.315405	1.191745	-0.587019	-0.232937	0.886631	-0.404538	-0.222132	0.827463	-0.406203	-0.158231	0.835143	-0.398994	-0.160481	0.896820	-0.396691	-0.209398	0.629313	-0.420774	-0.181088	0.605650	-0.534188	-0.293629	0.451401	-0.405039	-0.306344	0.411536	-0.413886	-0.241073	0.438102	-0.403629	-0.247195	0.399169	-0.406155	-0.332490	0.232782	-0.434455	-0.291886	0.230503	-0.512027	-0.371742	0.234685	-0.497816	-0.257603	0.132076	-0.405575	-0.198015	0.131772	-0.461573	-0.179214	0.120352	-0.459165	-0.234426	0.898163	-0.789562	-0.219682	0.838489	-0.792206	-0.156058	0.848186	-0.800873	-0.163285	0.907701	-0.800630	-0.198270	0.635370	-0.783719	-0.169064	0.619310	-0.668065	-0.288690	0.452071	-0.777678	-0.297749	0.413336	-0.769251	-0.239715	0.401660	-0.785642	-0.236918	0.444848	-0.792275	-0.316885	0.239006	-0.759020	-0.262930	0.237640	-0.689507	-0.346729	0.243091	-0.688501	-0.249410	0.132196	-0.791479	-0.183437	0.133117	-0.739013	-0.163583	0.119746	-0.754551	
631	3.1550	-0.300657	1.654334	-0.591561	-0.234100	1.636011	-0.788688	-0.203280	1.627014	-0.405347	-0.160865	1.599159	-0.603114	-0.133220	1.144858	-0.476420	-0.137685	1.145361	-0.718840	-0.212339	1.200765	-0.437825	-0.210872	1.186796	-0.753427	-0.309521	1.193480	-0.538539	-0.313847	1.189651	-0.635468	-0.316145	1.189307	-0.586724	-0.233181	0.884045	-0.404744	-0.222263	0.824910	-0.406453	-0.158372	0.832713	-0.399254	-0.160741	0.894387	-0.396909	-0.209313	0.626867	-0.420955	-0.181153	0.603156	-0.534407	-0.293947	0.449174	-0.405062	-0.306800	0.409404	-0.413827	-0.241462	0.435688	-0.403842	-0.247662	0.396756	-0.406388	-0.333566	0.230658	-0.434353	-0.293594	0.228587	-0.512280	-0.373401	0.232920	-0.497324	-0.258628	0.129424	-0.406892	-0.199618	0.129770	-0.463378	-0.180796	0.118442	-0.461171	-0.234626	0.895572	-0.789285	-0.219595	0.835982	-0.792135	-0.156078	0.846045	-0.801238	-0.163628	0.905495	-0.800853	-0.197085	0.633011	-0.784140	-0.168055	0.616881	-0.668448	-0.288457	0.450289	-0.778161	-0.297822	0.411666	-0.769712	-0.239790	0.399540	-0.785783	-0.236670	0.442671	-0.792501	-0.318093	0.237302	-0.759310	-0.264711	0.236041	-0.689349	-0.348696	0.241712	-0.689131	-0.250460	0.129992	-0.790315	-0.185077	0.131511	-0.737255	-0.165079	0.118150	-0.752549	
632	3.1600	-0.300270	1.651952	-0.591764	-0.233705	1.633292	-0.788939	-0.202991	1.624309	-0.405476	-0.160542	1.596341	-0.603257	-0.133968	1.142260	-0.476438	-0.138757	1.143014	-0.719029	-0.212965	1.198133	-0.437788	-0.212169	1.184305	-0.753297	-0.310189	1.190847	-0.538278	-0.314711	1.186948	-0.635114	-0.316891	1.186681	-0.586432	-0.233420	0.881259	-0.404970	-0.222393	0.822149	-0.406710	-0.158510	0.830074	-0.399533	-0.160985	0.891748	-0.397163	-0.209216	0.624210	-0.421153	-0.181190	0.600453	-0.534652	-0.294226	0.446732	-0.405093	-0.307248	0.407057	-0.413796	-0.241831	0.433077	-0.404055	-0.248101	0.394133	-0.406632	-0.334639	0.228329	-0.434264	-0.295299	0.226450	-0.512531	-0.375054	0.230916	-0.496857	-0.259658	0.126626	-0.408147	-0.201260	0.127609	-0.465128	-0.182412	0.116396	-0.463091	-0.234830	0.892746	-0.788969	-0.219515	0.833250	-0.792038	-0.156110	0.843686	-0.801571	-0.163985	0.903056	-0.801032	-0.195919	0.630427	-0.784562	-0.167008	0.614236	-0.668865	-0.288236	0.448283	-0.778649	-0.297913	0.409774	-0.770187	-0.239891	0.397196	-0.785945	-0.236448	0.440272	-0.792746	-0.319256	0.235339	-0.759649	-0.266483	0.234239	-0.689227	-0.350668	0.240115	-0.689858	-0.251445	0.127529	-0.789118	-0.186651	0.129762	-0.735466	-0.166491	0.116414	-0.750491	
633	3.1650	-0.299866	1.649323	-0.591971	-0.233295	1.630294	-0.789188	-0.202688	1.621345	-0.405610	-0.160260	1.593253	-0.603415	-0.134710	1.139380	-0.476482	-0.139833	1.140373	-0.719214	-0.213571	1.195234	-0.437741	-0.213431	1.181544	-0.753199	-0.310866	1.188021	-0.538011	-0.315581	1.184036	-0.634792	-0.317640	1.183860	-0.586132	-0.233653	0.878271	-0.405215	-0.222523	0.819186	-0.406975	-0.158649	0.827221	-0.399832	-0.161201	0.888906	-0.397454	-0.209094	0.621346	-0.421371	-0.181194	0.597546	-0.534924	-0.294492	0.444087	-0.405151	-0.307683	0.404497	-0.413800	-0.242168	0.430258	-0.404273	-0.248514	0.391302	-0.406914	-0.335732	0.225810	-0.434208	-0.297007	0.224104	-0.512806	-0.376705	0.228672	-0.496434	-0.260674	0.123718	-0.409329	-0.202923	0.125282	-0.466813	-0.184044	0.114207	-0.464913	-0.235046	0.889683	-0.788618	-0.219449	0.830287	-0.791911	-0.156162	0.841095	-0.801865	-0.164356	0.900381	-0.801170	-0.194765	0.627620	-0.784977	-0.165927	0.611370	-0.669305	-0.288012	0.446050	-0.779133	-0.298012	0.407654	-0.770681	-0.240002	0.394632	-0.786125	-0.236239	0.437651	-0.793007	-0.320383	0.233139	-0.760028	-0.268253	0.232233	-0.689129	-0.352645	0.238274	-0.690654	-0.252355	0.124855	-0.787911	-0.188149	0.127884	-0.733676	-0.167813	0.114559	-0.748408	
